<svg xmlns="http://www.w3.org/2000/svg" width="54.465" height="57" viewBox="0 0 54.465 57"><g transform="translate(0.007 -0.047)"><g transform="translate(-0.007 0.047)"><path d="M53.532,30.186,28.1,3.795a.92.92,0,0,0-1.325,0L1.111,30.439a5.021,5.021,0,0,1,.338-6.7l.023-.023,22.208-22.2a5.014,5.014,0,0,1,7.092,0l22.22,22.216,0,0A5.024,5.024,0,0,1,53.532,30.186Z" transform="translate(0.007 -0.047)" fill="#ec6608"/><path d="M31.715,709.195a1.417,1.417,0,0,1,1.789.7,2.323,2.323,0,0,0,2.208,1.292c1.173,0,1.988-.557,2.008-1.452.02-.613-.258-1.153-1.65-1.55l-1.65-.458c-3.023-.935-3.54-2.664-3.54-3.9,0-2.446,2.085-4.1,4.712-4.1a4.423,4.423,0,0,1,4.176,2.286,1.2,1.2,0,0,1-.438,1.611,1.27,1.27,0,0,1-1.829-.338,2.422,2.422,0,0,0-1.949-.954c-1.014,0-1.77.6-1.77,1.411,0,.357.139,1.014,1.472,1.392l1.631.477c3.321.954,3.8,2.821,3.758,4.136-.04,2.724-2.505,4.016-4.931,4.016s-4.176-1.172-4.771-2.941A1.275,1.275,0,0,1,31.715,709.195Z" transform="translate(-28.978 -656.817)" fill="#ec6608"/><path d="M244.651,705.083c.009-.064.017-.128.024-.193l.007-.077c.006-.061.01-.123.013-.184,0-.024,0-.048,0-.073,0-.083.006-.166.006-.248h0c0-.076,0-.153-.006-.229a.417.417,0,0,0,0-.073c0-.053-.006-.106-.01-.159,0-.028-.006-.056-.008-.083-.006-.05-.01-.1-.017-.149,0-.028-.007-.056-.012-.083-.007-.05-.015-.1-.024-.152,0-.025-.009-.051-.014-.076-.01-.055-.022-.109-.034-.164,0-.02-.009-.04-.014-.061-.016-.068-.033-.134-.052-.2l-.006-.021a4.753,4.753,0,0,0-.156-.456h0q-.043-.107-.092-.213l-.01-.022c-.03-.061-.061-.128-.1-.191l-.013-.025c-.034-.061-.069-.123-.106-.188l-.01-.017a4.032,4.032,0,0,0-.773-.93h0a4.583,4.583,0,0,0-3.135-1.076h-4.289a1.419,1.419,0,0,0-1.416,1.517V712.4a1.482,1.482,0,0,0,1.476,1.375,1.44,1.44,0,0,0,1.477-1.375v-3.54h2.751a4.234,4.234,0,0,0,4.485-3.473h0c.017-.083.031-.167.044-.251C244.646,705.12,244.648,705.1,244.651,705.083Zm-4.678,1.19h-2.609v-3.925h2.69a1.98,1.98,0,0,1-.081,3.925Z" transform="translate(-220.033 -656.827)" fill="#ec6608"/><path d="M421.545,709.63l-.951,2.548a1.488,1.488,0,0,1-1.861.769,1.506,1.506,0,0,1-.89-1.84l4.025-10.842a1.992,1.992,0,0,1,2-1.376h.123a1.992,1.992,0,0,1,2,1.376l4.025,10.842a1.5,1.5,0,0,1-.89,1.84,1.485,1.485,0,0,1-1.861-.769l-.952-2.548Zm3.8-2.569-1.416-4.852-1.416,4.854Z" transform="translate(-392.149 -656.029)" fill="#ec6608"/><path d="M651.521,708.84l-.951,2.548a1.487,1.487,0,0,1-1.861.769,1.506,1.506,0,0,1-.89-1.84l4.025-10.842a1.992,1.992,0,0,1,2-1.376h.123a1.991,1.991,0,0,1,2,1.376L660,710.317a1.5,1.5,0,0,1-.89,1.84,1.486,1.486,0,0,1-1.861-.769l-.951-2.548Zm3.8-2.569-1.416-4.855-1.416,4.855Z" transform="translate(-608.021 -655.287)" fill="#ec6608"/><path d="M66.047,93.18,41.13,119.054a4.989,4.989,0,0,0,2.269.654q.077.007.155.007h.887v7.854a14.225,14.225,0,0,1,8.138-5.694l4.9-13.516a.794.794,0,0,1,1.51.053l.568,1.987.925-1.021a.8.8,0,0,1,1.379.464l.191,2.2a3,3,0,0,1,2.2,2.342l3.538,1.427a.8.8,0,0,1,.44,1.032c0,.012-.035.074-.036.076a6.314,6.314,0,0,1-5.636,3.6,6.6,6.6,0,0,1-.737-.041v7.948a6.525,6.525,0,0,1,2.289,1.678,6.886,6.886,0,0,1,1.265,2.136l.534-1.438,0-.01,0-.01a4.566,4.566,0,0,1,4.409-3.035h.123a4.732,4.732,0,0,1,2.553.71,5.27,5.27,0,0,1,.776-1.988,1.572,1.572,0,0,0,.331-.862V125.3a8.139,8.139,0,0,0-.117-2.1h0a3.009,3.009,0,0,0-.491-.027c-1.651,0-4.27-.828-4.27-3.05,0-.8.749-1.331,1.411-1.8a4.928,4.928,0,0,0,.6-.462,4.148,4.148,0,0,0,.429-.583c.423-.636.95-1.426,1.83-1.426.191,0,.613-.886.613-1.83a.61.61,0,0,1,.61-.61c1.86,0,2.683,1.853,2.94,2.6a3.2,3.2,0,0,1,1.941,2.891V125c0,.713,1.595,2.185,2.7,3.175a4.834,4.834,0,0,1,2.131-.475h.123a4.7,4.7,0,0,1,2.684.8v-8.787h.821a4.981,4.981,0,0,0,2.764-.829Zm5.073,11.248a.9.9,0,0,1,1.049.94,1.191,1.191,0,0,1-.312.761,1.106,1.106,0,0,1-1.239.326.876.876,0,0,1-.234-.15h0a1.054,1.054,0,0,1,.013-1.483A1.191,1.191,0,0,1,71.12,104.428Zm-2.8-.67a1.076,1.076,0,1,1,.495,1.539A1.151,1.151,0,0,1,68.319,103.757Zm-2.16.74a.983.983,0,0,1,.957-1,.859.859,0,0,1,.645.342,1.14,1.14,0,0,1-.061,1.44.859.859,0,0,1-.671.288.816.816,0,0,1-.291-.067A1.032,1.032,0,0,1,66.159,104.5Zm4.251,4.624a1.115,1.115,0,0,1-1.811.245,2.2,2.2,0,0,0-1.6-.7h-.017a1.119,1.119,0,0,1-.629-2.048l1.208-.811a1.769,1.769,0,0,1,2.732,1.186l.233,1.441A1.114,1.114,0,0,1,70.41,109.121Zm1.652-.742a1.079,1.079,0,0,1-.961.074.833.833,0,0,1-.395-.348,1.045,1.045,0,0,1,1.8-1.038h0A.984.984,0,0,1,72.062,108.379Z" transform="translate(-38.607 -87.468)" fill="#ec6608"/></g></g></svg>