<svg width="44" height="44" viewBox="0 0 44 44" fill="none" xmlns="http://www.w3.org/2000/svg">
<g clip-path="url(#clip0_11_182)">
<path d="M12.8773 4.23501C14.2541 4.7014 15.5639 5.3461 16.7732 6.15268C18.4811 5.71618 20.2372 5.49689 22 5.50001C23.8205 5.50001 25.5768 5.72734 27.2232 6.15085C28.432 5.34505 29.7411 4.70097 31.1172 4.23501C32.395 3.80051 34.2155 3.09651 35.2972 4.29368C36.0305 5.10768 36.2138 6.47168 36.344 7.51301C36.4907 8.67535 36.5255 10.1897 36.1405 11.693C37.6127 13.5942 38.5 15.862 38.5 18.3333C38.5 22.077 36.4723 25.3275 33.4712 27.5788C32.0268 28.6487 30.4249 29.4873 28.7228 30.0648C29.1152 30.9632 29.3333 31.9568 29.3333 33V38.5C29.3333 38.9862 29.1402 39.4526 28.7964 39.7964C28.4526 40.1402 27.9862 40.3333 27.5 40.3333H16.5C16.0138 40.3333 15.5475 40.1402 15.2037 39.7964C14.8598 39.4526 14.6667 38.9862 14.6667 38.5V36.6832C12.9158 36.8977 11.4473 36.707 10.1988 36.1772C8.89351 35.6235 7.98418 34.7655 7.30035 33.9442C6.65135 33.1668 5.94368 31.4142 4.92068 31.0732C4.6922 30.9971 4.48095 30.8768 4.29897 30.719C4.117 30.5613 3.96788 30.3693 3.86012 30.1539C3.64248 29.719 3.60653 29.2154 3.76018 28.754C3.91383 28.2926 4.24449 27.9111 4.67942 27.6934C5.11434 27.4758 5.61791 27.4399 6.07935 27.5935C7.30035 28.0005 8.09601 28.8805 8.64051 29.5882C9.52051 30.7248 10.2355 32.2098 11.6288 32.802C12.2027 33.0458 13.0442 33.2053 14.3605 33.0257L14.6667 32.9633C14.6702 31.9656 14.8779 30.9792 15.2772 30.0648C13.5751 29.4874 11.9732 28.6487 10.5288 27.5788C7.52768 25.3275 5.50001 22.0788 5.50001 18.3333C5.50001 15.8657 6.38551 13.5997 7.85401 11.7003C7.46901 10.197 7.50201 8.67901 7.64868 7.51485L7.65785 7.44518C7.79168 6.37818 7.94751 5.12235 8.69551 4.29368C9.77718 3.09651 11.5995 3.80235 12.8755 4.23685L12.8773 4.23501Z" fill="white"/>
</g>
<defs>
<clipPath id="clip0_11_182">
<rect width="44" height="44" fill="white"/>
</clipPath>
</defs>
</svg>
