<svg width="40" height="40" viewBox="0 0 40 40" fill="none" xmlns="http://www.w3.org/2000/svg">
<path d="M40 7.50001V32.5C40 33.9188 38.9187 35 37.5 35H35V12.3113L20 23.0863L5 12.3113V35H2.5C1.08125 35 0 33.9188 0 32.5V7.50001C0 6.79001 0.2675 6.16501 0.71625 5.72251C0.949966 5.48867 1.22831 5.30421 1.53474 5.18009C1.84117 5.05597 2.16943 4.99473 2.5 5.00001H3.33375L20 17.0838L36.6663 5.00001H37.5C38.21 5.00001 38.835 5.26751 39.2838 5.72251C39.7325 6.16501 40 6.79001 40 7.50001Z" fill="black"/>
</svg>
