<svg width="35" height="33" viewBox="0 0 35 33" fill="none" xmlns="http://www.w3.org/2000/svg">
<g clip-path="url(#clip0_12_221)">
<path d="M7.33333 3.6685C7.33285 4.64096 6.94607 5.5734 6.2581 6.26069C5.57012 6.94798 4.63729 7.33382 3.66483 7.33333C2.69237 7.33285 1.75994 6.94607 1.07265 6.2581C0.385356 5.57012 -0.000485771 4.63729 4.58996e-07 3.66483C0.000486689 2.69237 0.387261 1.75994 1.07524 1.07265C1.76322 0.385356 2.69604 -0.000485771 3.6685 4.58996e-07C4.64096 0.000486689 5.5734 0.387261 6.26069 1.07524C6.94798 1.76322 7.33382 2.69604 7.33333 3.6685ZM7.44333 10.0485H0.11V33.0018H7.44333V10.0485ZM19.03 10.0485H11.7333V33.0018H18.9567V20.9568C18.9567 14.2468 27.7017 13.6235 27.7017 20.9568V33.0018H34.9433V18.4635C34.9433 7.15183 22 7.5735 18.9567 13.1285L19.03 10.0485Z" fill="black"/>
</g>
<defs>
<clipPath id="clip0_12_221">
<rect width="35" height="33" fill="black"/>
</clipPath>
</defs>
</svg>
