<svg xmlns="http://www.w3.org/2000/svg" viewBox="0 0 667.91 699.97"><defs><style>.cls-1{fill:#1c1c1c;}.cls-2{fill:#fff;}.cls-3{fill:#f6a31e;}</style></defs><g id="Calque_2" data-name="Calque 2"><g id="Calque_1-2" data-name="Calque 1"><rect class="cls-1" width="667.91" height="699.97"/><path class="cls-2" d="M366.87,640.76a146.47,146.47,0,0,1-29.35,7.64,125.7,125.7,0,0,1-30.61,1.23,82.33,82.33,0,0,1-30-8.29l-3.49-1.9c-1.13-.69-2.25-1.42-3.37-2.14s-2.16-1.55-3.24-2.33l-.81-.6a7.36,7.36,0,0,1-.82-.67l-1.67-1.56a38.39,38.39,0,0,1-4.94-6.77l-1-1.74-.92-1.77c-.64-1.17-1.2-2.35-1.74-3.54a215.32,215.32,0,0,1-10.47-29c-2.89-9.78-5.28-19.65-7.55-29.53s-4.33-19.8-6.27-29.73-3.66-19.89-5.35-29.85-3.21-19.95-4.7-29.93-2.86-20-4.2-30-2.56-20-3.77-30-2.26-20.05-3.34-30.08-2.1-20.06-3.07-30.1l-2.64-30.13-1.25-15.07-1.08-15.09c-.68-10.06-1.43-20.11-1.94-30.2l0-.8.27-.5a13.84,13.84,0,0,1,1.37-2.06c.47-.57,1-1.13,1.44-1.65s1-1,1.54-1.49l1.61-1.36a42.75,42.75,0,0,1,7-4.41A62,62,0,0,1,227.54,242c.65-.15,1.29-.32,1.94-.46l2-.34,3.91-.68c2.63-.29,5.24-.64,7.86-.83s5.25-.28,7.88-.32l7.85.08-7.8.73c-2.59.29-5.17.72-7.74,1.07s-5.1,1-7.64,1.48l-3.75,1-1.87.48c-.62.19-1.22.4-1.83.6L224.66,246l-3.54,1.45a54.85,54.85,0,0,0-6.75,3.44,39.15,39.15,0,0,0-6,4.37l-1.31,1.26c-.41.43-.78.89-1.18,1.33s-.71.91-1,1.37a9.18,9.18,0,0,0-.74,1.25l.23-1.31,7.37,59.94,7.59,59.9c5.27,39.89,10.58,79.76,16.9,119.42q2.34,14.88,5,29.7c1.71,9.88,3.52,19.73,5.53,29.54s4.21,19.55,6.67,29.19A207.18,207.18,0,0,0,262.3,615a50.63,50.63,0,0,0,6.74,12l1,1.07a4.22,4.22,0,0,0,.61.56l.69.57c.93.73,1.79,1.56,2.77,2.23l2.91,2.07,3,1.88a80.72,80.72,0,0,0,27.43,9.26,132.43,132.43,0,0,0,29.68.94c5-.36,10-1,14.91-1.78A149.36,149.36,0,0,0,366.87,640.76Z"/><path class="cls-2" d="M291.89,124.15c-3.27.25-6.5.61-9.68,1a80.16,80.16,0,0,0-9.28,1.8,24.89,24.89,0,0,0-7.84,3.33,5.7,5.7,0,0,0-2,2.26,3.9,3.9,0,0,0-.17,2.3l-.05-.43A126.16,126.16,0,0,1,265.36,150c.28,2.59.44,5.18.6,7.77s.21,5.15.22,7.86v2.61L263.86,170c-1.4,1-3,2.35-4.45,3.56s-3,2.51-4.43,3.81c-2.91,2.61-5.78,5.26-8.5,8A137.79,137.79,0,0,0,231.41,203c-1.12,1.57-2.17,3.17-3.22,4.79s-2,3.28-2.86,5a67.28,67.28,0,0,0-4.59,10.52,57.11,57.11,0,0,0-2.53,11.33,61.08,61.08,0,0,0,.06,12,41.62,41.62,0,0,1-3.65-11.94,48.33,48.33,0,0,1,.06-12.77l.5-3.19.74-3.13c.22-1.06.58-2.07.88-3.1l.48-1.54.56-1.51a73,73,0,0,1,5.43-11.6,108.36,108.36,0,0,1,15.19-20.25c2.91-3,5.91-6,9.07-8.73,1.58-1.39,3.2-2.73,4.83-4.05s3.28-2.54,5.17-3.86l-2.33,4.36c.09-2.36.1-4.89.14-7.35s0-4.95-.05-7.42-.15-4.93-.25-7.39-.32-4.89-.53-7.32l0-.42a12,12,0,0,1,2-7,13,13,0,0,1,5.09-4.23,21.88,21.88,0,0,1,5.37-1.76,34,34,0,0,1,5.21-.64,50.65,50.65,0,0,1,5.08,0c1.67.08,3.33.22,5,.42A67.09,67.09,0,0,1,291.89,124.15Z"/><path class="cls-2" d="M270.88,60.36a364.67,364.67,0,0,1,48.56-9.42,141.74,141.74,0,0,1,25-.93,40.47,40.47,0,0,1,12.9,2.78,12.72,12.72,0,0,1,3.25,2.09,18.76,18.76,0,0,1,2.5,2.64,33.79,33.79,0,0,1,3.56,5.77,75.66,75.66,0,0,1,4.53,12.05c1.19,4.07,2.16,8.16,3,12.25s1.56,8.21,2.21,12.33,1.15,8.24,1.62,12.36c.95,8.25,1.66,16.51,2.2,24.78s1,16.5,1.11,24.87L379,157.82c1.87,1.13,3.49,2.2,5.18,3.34s3.31,2.3,4.92,3.5q4.85,3.59,9.41,7.56a121.51,121.51,0,0,1,16.79,17.63,82.32,82.32,0,0,1,6.87,10.36,62.53,62.53,0,0,1,5.13,11.6,56.32,56.32,0,0,1,2.55,12.7,53.72,53.72,0,0,1-.78,13.09l-.1.43a1.32,1.32,0,0,0,.08-.3c0-.1,0-.19,0-.38a1.56,1.56,0,0,0,0-.48,2.22,2.22,0,0,0-.1-.5c-.07-.17-.12-.31-.16-.42a1.6,1.6,0,0,0-.2-.32c0-.11-.23-.27-.18-.25a9.79,9.79,0,0,0,1.25.75c1.49.8,3.53,1.73,5.54,2.91a28,28,0,0,1,6,4.55,21.54,21.54,0,0,1,4.51,6.75,24.21,24.21,0,0,1,1.79,7.6,16.78,16.78,0,0,1,.09,1.86c0,.61,0,1.23,0,1.82l-.18,3.24c-.26,3.82-.36,7.92-.51,11.92-.59,16.16-1.19,32.41-2,48.62-1.53,32.44-4.3,64.81-7.49,97.11l-2.7,24.2-3,24.16c-.94,8.06-2.14,16.08-3.28,24.11s-2.26,16.07-3.55,24.08c-4.83,32.08-10.74,64-17.3,95.73.93-8.06,1.92-16.1,2.9-24.14l1.52-12,1.38-12.07,2.86-24.12c.84-8,1.69-16.1,2.6-24.14s1.71-16.09,2.5-24.14l1.2-12.08c.42-4,.79-8,1.16-12.07l2.21-24.16,2-24.17c2.64-32.23,4.52-64.5,6-96.78.76-16.14,1.23-32.28,1.76-48.49.18-4.09.29-8.09.6-12.35l.18-2.83c0-.42,0-.81,0-1.21a9.18,9.18,0,0,0,0-1.18,13.36,13.36,0,0,0-.93-4.17c-1-2.46-2.87-4.34-5.83-6.07-1.47-.89-3.13-1.65-5.2-2.76a16.08,16.08,0,0,1-3.76-2.64,9.58,9.58,0,0,1-1.17-1.39,9.42,9.42,0,0,1-.56-1,5.45,5.45,0,0,1-.45-1.12,9.26,9.26,0,0,1-.29-1.24,10.19,10.19,0,0,1-.07-1.24,5.52,5.52,0,0,1,.1-1.13c.06-.35.13-.7.22-1.05l-.11.44a42.75,42.75,0,0,0,.67-10.17,45,45,0,0,0-2-10.16,57.2,57.2,0,0,0-4.18-9.78,70.09,70.09,0,0,0-5.86-9.21,111.73,111.73,0,0,0-15.08-16.42c-2.79-2.52-5.69-4.93-8.67-7.23-1.49-1.16-3-2.27-4.54-3.36s-3.13-2.17-4.57-3.08l-2.35-1.46v-2.64c.06-16.22-.45-32.65-1.78-48.86-.7-8.11-1.57-16.2-2.84-24.18-.65-4-1.42-7.94-2.37-11.82a69.65,69.65,0,0,0-3.65-11.18c-1.54-3.45-3.57-6.77-6.18-8.07a35.92,35.92,0,0,0-11-2.94,138.87,138.87,0,0,0-24.24-.4c-8.16.41-16.32,1.23-24.47,2.25S279,59,270.88,60.36Z"/><path class="cls-2" d="M342.09,184.21s49.25,26.47,45.31,74.07c6.51,9.05,17.45-2.35,19.48,22.66s.56,169.15-41.89,311c0,0,24.9-200.8,20.3-262.93s.94-43.66-8.84-50.32c-7.87-2.71-13.36-16.9-10.92-24.86S383.74,226.45,342.09,184.21Z"/><path class="cls-2" d="M342.09,184.21a105.61,105.61,0,0,1,18.44,13.51,95.27,95.27,0,0,1,15.06,17.2,73,73,0,0,1,5.71,9.93c.87,1.71,1.55,3.5,2.29,5.26s1.3,3.6,1.78,5.46a64.35,64.35,0,0,1,2.26,22.73l0-.15a9.49,9.49,0,0,0,4.09,3.27,30.91,30.91,0,0,0,5.21,1.37,11.1,11.1,0,0,1,5,2.32,11.82,11.82,0,0,1,3.05,4.6,39.33,39.33,0,0,1,2.19,10.7c.25,3.63.44,7.26.48,10.89.3,14.51-.07,29-.62,43.52q-1.9,43.49-7.12,86.74c-3.47,28.81-7.83,57.53-13.59,86s-12.57,56.68-20.76,84.54l-1.09-.23q4.86-39.5,9-79.08c2.77-26.38,5.33-52.79,7.5-79.23q1.65-19.83,2.87-39.69c.34-6.62.77-13.24,1-19.86l.35-9.94c.12-3.31.24-6.63.23-9.94.37-13.27-.55-26.48-1.44-39.73-.4-6.62-.74-13.25-1-19.88-.13-3.32-.2-6.64-.36-9.94a19.23,19.23,0,0,0-.24-2.43,1.82,1.82,0,0,0-.42-1,2,2,0,0,0-1-.34,11,11,0,0,1-4.66-1.93l.06,0a13.52,13.52,0,0,1-5.51-4,27,27,0,0,1-5.94-19.08c.28-2.3,1.36-4.36,2.18-6.44a45.07,45.07,0,0,0,2.19-6.36,33.11,33.11,0,0,0,.6-13.37,46.6,46.6,0,0,0-1.46-6.58c-.33-1.07-.77-2.11-1.15-3.17l-.6-1.58-.29-.79-.38-.76-1.48-3a27.42,27.42,0,0,0-1.59-3c-1.19-1.92-2.28-3.9-3.55-5.76l-3.94-5.5c-1.37-1.78-2.85-3.49-4.27-5.24-.73-.87-1.42-1.75-2.17-2.6l-2.31-2.48Zm0,0,4.64,4.94,2.31,2.46c.75.84,1.45,1.72,2.18,2.58,1.43,1.75,2.92,3.45,4.3,5.23l4,5.49c1.29,1.85,2.39,3.83,3.59,5.74a27.49,27.49,0,0,1,1.6,3l1.51,3,.38.76.3.8.61,1.58c.38,1.06.84,2.1,1.17,3.18a46.81,46.81,0,0,1,1.5,6.61,33.52,33.52,0,0,1-.53,13.49,48.12,48.12,0,0,1-2.17,6.43c-.83,2.1-1.88,4.13-2.13,6.34a24.7,24.7,0,0,0,2.38,13,24.36,24.36,0,0,0,3.54,5.66,13,13,0,0,0,5.3,3.86h0l0,0a10.5,10.5,0,0,0,4.45,1.83,2.49,2.49,0,0,1,1.3.47A2.34,2.34,0,0,1,383,282a19.76,19.76,0,0,1,.26,2.52c.17,3.32.24,6.63.38,9.94.25,6.63.6,13.25,1,19.87.91,13.21,1.86,26.5,1.51,39.78,0,3.32-.1,6.63-.22,9.95l-.32,9.95c-.26,6.63-.67,13.25-1,19.88q-1.21,19.88-2.8,39.71c-2.13,26.45-4.64,52.87-7.37,79.26s-5.67,52.77-8.86,79.12l-1.09-.23q12.29-41.73,20.87-84.41c5.8-28.41,10.21-57.1,13.72-85.88s5.95-57.7,7.27-86.67c.57-14.49,1-29,.7-43.48,0-3.62-.22-7.24-.47-10.85a38.42,38.42,0,0,0-2.13-10.54,11.46,11.46,0,0,0-2.88-4.4,10.62,10.62,0,0,0-4.76-2.22,31.55,31.55,0,0,1-5.28-1.43,10.33,10.33,0,0,1-2.39-1.42,11.38,11.38,0,0,1-1.89-2l0-.07v-.09a63.86,63.86,0,0,0-2.14-22.6c-.46-1.85-1.14-3.63-1.74-5.43s-1.4-3.55-2.25-5.25a71.49,71.49,0,0,0-5.64-9.93,94.87,94.87,0,0,0-14.95-17.24A105.13,105.13,0,0,0,342.09,184.21Z"/><path class="cls-3" d="M128.29,451.37c-15.86,0-29.43-3-40.32-9-12.38-6.76-18.92-17.65-18.92-31.49A31.92,31.92,0,0,1,77,389.85c3.86-4.56,11.05-10,23.41-10A21.73,21.73,0,0,1,113,383.79a18.49,18.49,0,0,1,7.8,11.76l.16.83v.84c0,7.38-5.48,12.53-13.33,12.53h-.56c.39,3.13,2.2,6.09,5.52,9,3.83,3.39,9.71,5.12,17.46,5.12a27.06,27.06,0,0,0,19.61-7.83,24.62,24.62,0,0,0,8-18.58c0-4.25-1.62-8.07-5-11.66a58.89,58.89,0,0,0-15.27-11.6q-10.22-5.5-20.57-11.16A74.69,74.69,0,0,1,97,347.6a35,35,0,0,1-9.43-24c0-14.88,6.42-26.89,19.09-35.7a68.49,68.49,0,0,1,39.89-12.27,61.34,61.34,0,0,1,27.7,6.27c10,5,15.44,13.24,15.7,23.77v.21A25.72,25.72,0,0,1,185,321.77a18.69,18.69,0,0,1-15.52,7.7c-9.94,0-13.89-6.45-14.26-12l-.07-1.09,1.32-6.88c-.33-2.61-1.68-5.57-11-5.57a17.41,17.41,0,0,0-12.76,5.26c-3.58,3.47-5.32,6.74-5.32,10,0,2,.44,5,4.25,8.41a69.13,69.13,0,0,0,15.3,10c6.86,3.39,13.8,7.09,20.61,11a67.42,67.42,0,0,1,19.66,17.05,41.27,41.27,0,0,1,8.91,25.9c0,18.73-7.5,33.68-22.29,44.46C159.88,446.21,144.56,451.37,128.29,451.37Z"/><path class="cls-1" d="M146.55,284.18a52.83,52.83,0,0,1,23.9,5.37q10.73,5.38,11,16.38a17.37,17.37,0,0,1-3.23,10.74,10.31,10.31,0,0,1-8.72,4.3q-5.5,0-5.78-4l1.35-7q-1.08-14.5-19.6-14.5a26,26,0,0,0-18.66,7.65q-7.93,7.65-7.92,16.11T126,334a77,77,0,0,0,17.18,11.28q10.08,5,20.14,10.74a58.66,58.66,0,0,1,17.19,14.9,32.77,32.77,0,0,1,7.11,20.67q0,23.91-18.79,37.59t-40.55,13.7q-21.75,0-36.24-7.92t-14.5-24a23.52,23.52,0,0,1,5.9-15.58q5.91-7,16.92-7a13.41,13.41,0,0,1,7.79,2.42,10,10,0,0,1,4.29,6.44q0,4-4.83,4-9.14,0-9.13,7.79.27,8.85,8.46,16.11T130,432.4a35.48,35.48,0,0,0,25.51-10.21,33,33,0,0,0,10.6-24.7q0-9.66-7.25-17.45a67.16,67.16,0,0,0-17.45-13.29q-10.2-5.5-20.54-11.15a65.71,65.71,0,0,1-17.59-13.69,26.56,26.56,0,0,1-7.25-18.26q0-18,15.44-28.73a60,60,0,0,1,35-10.74m0-17A76.81,76.81,0,0,0,101.81,281c-14.88,10.34-22.74,25.1-22.74,42.68a43.74,43.74,0,0,0,11.62,29.63,82.9,82.9,0,0,0,22.08,17.25c7.36,4,14.1,7.67,20.62,11.18a50.8,50.8,0,0,1,13.07,9.91c2.37,2.55,2.69,4.4,2.69,5.87a16.12,16.12,0,0,1-5.39,12.45A18.44,18.44,0,0,1,130,415.4a26.61,26.61,0,0,1-8.9-1.3,20.38,20.38,0,0,0,8.31-16.88v-1.68l-.33-1.65a26.86,26.86,0,0,0-11.28-17.08,30.51,30.51,0,0,0-17.47-5.45c-15.62,0-24.88,7.07-29.9,13a40.75,40.75,0,0,0-9.92,26.56c0,16.89,8.29,30.72,23.35,38.95,12.15,6.63,27.09,10,44.39,10,18.11,0,35.11-5.71,50.56-17,16.87-12.29,25.78-30,25.78-51.33a49.55,49.55,0,0,0-10.7-31.12,75.8,75.8,0,0,0-22.14-19.2c-2.11-1.21-4.24-2.4-6.37-3.57a29.53,29.53,0,0,0,4.09.28,27.29,27.29,0,0,0,22.33-11.1,34.06,34.06,0,0,0,6.62-20.94v-.41c-.34-13.69-7.58-24.75-20.39-31.17a69.8,69.8,0,0,0-31.51-7.17Zm5.39,63.45-1.22-.61a60.59,60.59,0,0,1-13.42-8.74c-1.4-1.24-1.4-1.75-1.4-2.06s.57-1.79,2.73-3.88a9,9,0,0,1,6.85-2.88c.69,0,1.28,0,1.79.06l-.23,1.21-.41,2.15.14,2.18a21.36,21.36,0,0,0,5.17,12.57Z"/><path class="cls-3" d="M484.58,466.94c-10.48,0-19.73-4.38-26.76-12.67-5.45-6.44-12.52-17.38-21.55-33.37a129.75,129.75,0,0,0-.65,13.11c0,15.24-10.66,16-12.79,16a48.45,48.45,0,0,1-14.33-2.12c-6.75-2.09-9.67-5.52-10.86-8.59C391,446.6,384.58,450,378,450c-8.93,0-16.05-2.07-21.15-6.16l-.36-.28-.33-.33a12.31,12.31,0,0,1-2.85-4.49A30.19,30.19,0,0,1,329.39,450c-9.83,0-18.39-4.46-25.43-13.25a35.84,35.84,0,0,1-3.36-5.06C291.7,444.26,283.48,450,274.89,450c-8.93,0-16.05-2.07-21.15-6.16l-.37-.29-.32-.32c-3.07-3.06-4.38-7.79-4.38-15.82,0-5.58.49-14.24,1.51-26.48.52-6.38.91-11.9,1.15-16.5-1.09,1.45-2.29,3.1-3.63,5-10.7,15-12.27,19.21-12.5,20a98.29,98.29,0,0,0-1.48,16.14l.27,8.32V434c0,15.24-10.66,16-12.8,16a52,52,0,0,1-14.76-2.09c-10.44-3.08-12-9.46-12-13,0-1.49.16-5.38,1.51-21.91,1-11.83,1.45-20.76,1.45-26.56V370.91c0-49.07,9.07-79.9,27.75-94.27a27.29,27.29,0,0,1,16.72-6.06c5.41,0,9.82,3.67,13.11,10.89,2.32,5.12,3.45,11.27,3.45,18.82a128.49,128.49,0,0,1-7.49,44c5.57-5.31,11-7.91,16.44-7.91a23.52,23.52,0,0,1,15.57,5.78A20.31,20.31,0,0,1,290.37,358c0,8.26-.85,19.94-2.6,35.71-.67,6-1.17,10.83-1.54,14.65a144.54,144.54,0,0,0,8-13.66,70.88,70.88,0,0,1,13.71-38.24c9.79-13.35,22.89-20.12,38.93-20.12,6.26,0,12.58,2.63,19.17,8,.83-.69,1.73-1.4,2.69-2.12,5.23-4,10-5.89,14.53-5.89s12.39,2.43,12.39,18.71c0,1.61-.19,4.44-1.63,12.05-1.09,5.75-2.32,9.92-3.86,13-.43,1.52-1.45,7.49-1.7,29.57a158.93,158.93,0,0,0,12.45-22.25c.3-4.33.49-7.89.56-10.62.72-36.74,2.94-65.39,6.59-85.09l.1-.58.19-.56c.91-2.73,2.92-5.81,9.77-12,6.14-5.51,11.32-8.08,16.28-8.08a11.16,11.16,0,0,1,8,3.35c3.13,3.17,4.48,7.9,4.39,15.33-.1,7.12-1.57,21.53-4.5,44.08q-1.18,9-2.11,17.64c7.82-9.7,16.24-14.62,25.09-14.62,16.76,0,26.76,9.81,26.76,26.23A43.73,43.73,0,0,1,483.39,389,58.31,58.31,0,0,1,466,404.55c9.8,16.89,18.19,28.94,25,35.86a3.62,3.62,0,0,0,.8.63l6.88-.77h.47a10.3,10.3,0,0,1,10.65,10.65c0,2.91-1,10.06-10.66,13.61A41.83,41.83,0,0,1,484.58,466.94ZM345.23,364.1c-1.52,0-4.84,2-9.2,7.79-4.53,6-6.73,12.84-6.73,21,0,8.74,1.23,15.86,3.66,21.16.41.89,1.65,3.41,3,4.35,2.12-2.19,8-10.11,18.68-37.5.12-1.15.29-3,.52-6,.14-1.88.27-3.49.39-4.88a23.47,23.47,0,0,0-4.31-3.44C347.58,364.29,345.72,364.1,345.23,364.1ZM458,370.3c-.81.5-3.63,2.66-8.46,10.94-1.16,2-2.25,4-3.25,5.89,12.92-6.88,12.92-13.49,12.92-15.68a.9.9,0,0,0-.33-.84C458.76,370.53,458.59,370.36,458,370.3Z"/><path class="cls-1" d="M434.37,279.08q4,0,3.9,10.07t-4.43,43.1q-4.3,33-5.37,60.41a108.06,108.06,0,0,1,15.43-32.49q10.61-15.3,21.35-15.31,18.25,0,18.26,17.73a35.27,35.27,0,0,1-7,21.34,51.1,51.1,0,0,1-18.8,15.44c-1.61.72-2.41,1.52-2.41,2.42a5.22,5.22,0,0,0,.8,2.68q16.92,29.8,28.73,41.89a9.77,9.77,0,0,0,7,3.22l7.25-.81a1.9,1.9,0,0,1,2.15,2.15q0,3.76-5.1,5.64a33.31,33.31,0,0,1-11.55,1.88q-12.07,0-20.27-9.67t-22.69-35.71q-3.5-5.64-3.49-8.59,0-4,11.28-9.4,18.25-9.39,18.26-23.62a9.32,9.32,0,0,0-2.82-6.85,10,10,0,0,0-7.39-2.82q-6.43,0-15.3,15.17t-12,28.46a126.08,126.08,0,0,0-3.09,28.6q0,7.51-4.29,7.51A39.87,39.87,0,0,1,411,439.78c-3.75-1.16-5.63-2.69-5.63-4.57s.71-10.37,2.14-25.5c0-.35.07-.69.1-1Q390.36,441.52,378,441.52q-10.47,0-15.84-4.29c-1.26-1.25-1.88-4.43-1.88-9.53s.18-11.95.54-20.54q-7,17.44-13.83,25.91a21.62,21.62,0,0,1-17.59,8.45q-10.74,0-18.79-10.06-5.76-7.2-7.4-20.31-16.41,30.36-28.31,30.37-10.47,0-15.84-4.29c-1.26-1.25-1.88-4.52-1.88-9.8s.49-13.87,1.48-25.78,1.47-20.81,1.47-26.71-1-8.86-3.08-8.86-7.48,6.13-16.25,18.39-13.42,20.09-14,23.49a105.64,105.64,0,0,0-1.61,17.72l.27,8.33c0,5-1.44,7.51-4.3,7.51a43.42,43.42,0,0,1-12.35-1.74q-5.91-1.74-5.91-4.83t1.48-21.22q1.47-18.12,1.48-27.25V370.91q0-68.73,24.43-87.53a18.93,18.93,0,0,1,11.55-4.3q2.67,0,5.36,5.91t2.69,15.3a118.81,118.81,0,0,1-7.79,43.23q-7.78,20.14-15.84,30.88-.27,6.72-.27,20.94,1.08-1.6,11.28-18.26t17.32-24.43q7.11-7.78,12.75-7.79a15.16,15.16,0,0,1,10.07,3.76,11.84,11.84,0,0,1,4.43,9.4q0,11.82-2.55,34.77t-2.55,29q0,6,1.61,6,4.56-.27,12.62-11.41A146.87,146.87,0,0,0,302.6,397a62.41,62.41,0,0,1,12.16-35.46q12.21-16.63,32.08-16.65,8.6,0,19.34,11.28a38,38,0,0,1,7.65-7.11q5.49-4.17,9.4-4.17t3.89,10.21a70.82,70.82,0,0,1-1.48,10.47q-1.47,7.79-3.35,11.28-2.43,6.18-2.42,43.76,0,7.25,1.61,7.25,4.56-.27,12.62-11.41a162.8,162.8,0,0,0,15.14-26.78q.57-7.75.7-12.56,1.06-54.76,6.44-83.77.81-2.42,7.39-8.32t10.6-5.91M226.83,361.51q15.84-33,15.84-55.31,0-11.28-2.95-11.28-4.83,0-9.4,29.81-2.41,15.84-3.49,36.78m110.08,65.78q8.86,0,26-44.3.27-2.14.68-7.38c.26-3.49.49-6.13.67-7.92-1.61-2.86-4.43-5.6-8.46-8.19s-7.57-3.9-10.61-3.9q-7.51,0-16,11.15a42.06,42.06,0,0,0-8.46,26.18q0,15,4.43,24.7t11.68,9.66m97.46-165.21c-9.44,0-17.05,5.86-22,10.26-7.14,6.41-10.55,10.78-12.15,15.59l-.38,1.12-.21,1.17a372.65,372.65,0,0,0-4.85,41.43,19.4,19.4,0,0,0-11.59-3.79c-5.72,0-11.42,1.95-17.34,5.95-6.31-4-12.62-5.95-19.05-5.95-18.63,0-34.46,8.16-45.79,23.59-.81,1.11-1.6,2.24-2.35,3.38a28.92,28.92,0,0,0-10.25-19.16,32.23,32.23,0,0,0-21.08-7.81,27.25,27.25,0,0,0-3.13.19,142.35,142.35,0,0,0,2.68-27.76c0-8.79-1.38-16.09-4.2-22.32-6-13.14-14.64-15.89-20.85-15.89A35.59,35.59,0,0,0,220,269.85l0,0,0,0c-20.9,16.09-31.06,49.12-31.06,101v15.57c0,5.57-.48,14.27-1.42,25.88-1.36,16.55-1.54,20.7-1.54,22.59,0,3.7,1.31,16.18,18.1,21.13a60.47,60.47,0,0,0,17.16,2.44c8.8,0,18.17-5.64,20.66-17.88a21.25,21.25,0,0,0,5.2,8.63l.65.65.72.58c6.66,5.32,15.56,8,26.47,8,9.85,0,18.26-5.34,25.44-13,10.13,10.64,21.22,13,29.06,13a38.33,38.33,0,0,0,23-7.32c6.55,4.86,15.14,7.32,25.56,7.32,6.47,0,12.79-2.34,18.87-7A29.78,29.78,0,0,0,406,456a57,57,0,0,0,16.84,2.5,20.55,20.55,0,0,0,18.81-12.15,135.73,135.73,0,0,0,9.7,13.4c8.69,10.25,20.18,15.67,33.24,15.67A50.28,50.28,0,0,0,502,472.52c10.18-3.76,16.24-11.83,16.24-21.6a18.94,18.94,0,0,0-19.15-19.15h-.94l-.93.11-2.36.26c-3.92-4.47-9.63-12.09-17.49-25.05A64.73,64.73,0,0,0,490.24,394a52.08,52.08,0,0,0,10.27-31.39c0-13.27-5.29-21.19-9.73-25.49-6.31-6.13-14.9-9.24-25.53-9.24A33.17,33.17,0,0,0,451.13,331c2.68-20.94,4-34.59,4.14-41.66.08-6.14-.54-15-6.84-21.42a19.61,19.61,0,0,0-14.06-5.88ZM338,398.37c-.13-1.72-.2-3.54-.2-5.44a25.37,25.37,0,0,1,5-15.91,31.28,31.28,0,0,1,3.17-3.64l.67.41.07,0,0,.47c-.17,2.09-.29,3.58-.39,4.62-3.28,8.35-6,14.67-8.29,19.44Z"/><path class="cls-3" d="M530.22,450c-12.74,0-23-4.94-30.61-14.7A49.61,49.61,0,0,1,489,404.2c0-21.43,4.8-38.15,14.28-49.69,9.89-12,22.85-18.15,38.52-18.15,8.11,0,15,2.35,20.51,7,5.84,4.92,8.93,11.86,8.93,20.06,0,13.39-5.63,24.7-16.74,33.62a59.86,59.86,0,0,1-27.9,12.29,23.83,23.83,0,0,0,3.21,5.34c3.13,4,5.74,4.42,7.42,4.42a19.72,19.72,0,0,0,10.22-2.6,33,33,0,0,0,9.36-8.58A148.43,148.43,0,0,0,575,376.15l0-.1c1.54-3.47,2.76-6,3.71-7.69,3.18-5.65,7.69-6.49,10.1-6.49,5,0,10,3.66,10,10.65,0,10.64-5.77,25.26-17.62,44.7C567.82,439,550.66,450,530.22,450Zm7.6-87.93c-3,.76-5.54,4.75-7.23,8.16a58,58,0,0,0-4.69,13.6,22.15,22.15,0,0,0,7.26-4.67c3.32-3.39,4.94-7.85,4.94-13.64A17.58,17.58,0,0,0,537.82,362.09Z"/><path class="cls-1" d="M541.77,344.86q9.12,0,15,5t5.9,13.56q0,16.11-13.56,27T516,401.79a34.22,34.22,0,0,0,7.12,18.12q6,7.65,14.1,7.65a28.15,28.15,0,0,0,14.49-3.76,41.14,41.14,0,0,0,11.82-10.74,156.47,156.47,0,0,0,19.33-33.56q2.14-4.83,3.36-7c.8-1.43,1.7-2.15,2.68-2.15s1.48.72,1.48,2.15q0,13.43-16.38,40.27-17.72,28.74-43.77,28.73-15,0-23.89-11.41a41.09,41.09,0,0,1-8.86-25.91q0-29.26,12.35-44.3t31.95-15M516,395.34q15.84-2.67,23.23-10.2t7.38-19.6q0-12.09-7.78-12.08-9.41,0-15.85,13a69.72,69.72,0,0,0-7,28.86m25.78-67.48c-18.08,0-33.67,7.35-45.09,21.25-10.76,13.1-16.21,31.64-16.21,55.09a57.93,57.93,0,0,0,12.43,36.34c9.13,11.76,22,18,37.32,18a59.75,59.75,0,0,0,33.3-10c9.35-6.15,17.74-15.18,24.94-26.84l0,0,0,0c12.87-21.1,18.87-36.71,18.87-49.13A19.64,19.64,0,0,0,604,361.27a18.33,18.33,0,0,0-15.11-7.9A18.87,18.87,0,0,0,579,356.1a32.8,32.8,0,0,0-11.28-19.27c-7.09-5.95-15.83-9-26-9Z"/></g></g></svg>